#!OML:ASF F:\VICON\USERDATA\INSTALL\Justin_Nancy\Justin_Nancy.ASF
:FULLY-SPECIFIED
:DEGREES
17
root 11.4729 16.7804 -19.996 6.291 -7.85188 0.766037
lowerback 5.39933 3.94392 5.1008
upperback -1.43974 5.65733 0.880112
thorax -4.11398 2.6872 -2.41479
lowerneck -13.3849 -6.1967 -10.6663
upperneck 14.6683 -7.65434 7.98715
head 7.43279 -3.58155 3.53596
rclavicle -1.83876e-014 1.59028e-014
rhumerus -44.9606 15.7299 -93.1058
rradius 123.935
rwrist -0.978176
rhand -14.3512 30.0186
rfingers 7.12502
rthumb 11.7904 0.370473
lclavicle -1.83876e-014 1.59028e-014
lhumerus -69.5864 -6.69994 94.5521
lradius 105.924
lwrist 27.1592
lhand -18.1015 8.1225
lfingers 7.12502
lthumb 8.17236 37.9445
rfemur 19.4504 5.97052 33.1253
rtibia 28.9178
rfoot 5.74465 -3.115
rtoes 15.0624
lfemur -41.2194 -5.40573 -2.75648
ltibia 34.1431
lfoot 4.41489 2.81524
ltoes -15.8212
18
root 11.4137 16.7645 -19.3949 6.32997 -9.38117 0.490659
lowerback 5.50712 4.37346 5.37464
upperback -1.63662 6.25951 0.746552
thorax -4.29265 2.96788 -2.76406
lowerneck -13.298 -6.24464 -10.7891
upperneck 15.016 -7.79904 8.38535
head 7.56706 -3.62558 3.67422
rclavicle 1.56046e-014 -2.46493e-014
rhumerus -45.4797 16.4852 -93.7864
rradius 124.37
rwrist -1.35987
rhand -14.3172 29.5213
rfingers 7.12502
rthumb 11.8232 -0.12495
lclavicle 1.56046e-014 -2.46493e-014
lhumerus -70.8653 -6.20633 93.9252
lradius 107.379
lwrist 27.5957
lhand -17.992 8.11649
lfingers 7.12502
lthumb 8.27807 37.9343
rfemur 19.9788 8.15822 33.3812
rtibia 30.9972
rfoot 4.74957 -3.43889
rtoes 14.7713
lfemur -39.6101 -8.26353 0.0353176
ltibia 30.0524
lfoot 3.77901 2.37691
ltoes -18.3591
19
root 11.3427 16.7414 -18.8215 6.70645 -10.4875 -0.105498
lowerback 5.44792 4.62909 5.81644
upperback -1.73335 6.634 0.793083
thorax -4.28768 3.14028 -2.98243
lowerneck -13.3979 -6.36831 -11.0161
upperneck 14.9337 -7.99856 8.87747
head 7.60903 -3.68846 3.84859
rclavicle -5.83433e-014 -1.03368e-014
rhumerus -45.6416 17.1783 -94.3486
rradius 124.486
rwrist -1.99582
rhand -14.4607 29.4254
rfingers 7.12502
rthumb 11.6849 -0.228755
lclavicle -5.83433e-014 -1.03368e-014
lhumerus -71.5232 -5.68609 93.5199
lradius 108.668
lwrist 28.3471
lhand -18.5665 8.28211
lfingers 7.12502
lthumb 7.7236 38.1211
rfemur 19.5572 9.82737 34.0059
rtibia 33.9224
rfoot 4.01574 -4.06809
rtoes 13.3921
lfemur -39.031 -10.156 2.79061
ltibia 27.3819
lfoot 3.22192 1.3196
ltoes -20.7793
20
root 11.2807 16.7125 -18.2368 6.81956 -12.0116 -0.61853
lowerback 5.39273 4.90569 6.19415
upperback -1.50676 7.01638 0.884869
thorax -3.95374 3.33706 -3.09853
lowerneck -13.7928 -6.51629 -11.179
upperneck 14.7083 -8.18137 9.25354
head 7.64805 -3.74166 3.96836
rclavicle -3.02153e-014 -3.73715e-014
rhumerus -45.2583 17.8246 -94.6491
rradius 124.251
rwrist -2.66698
rhand -14.0681 30.1974
rfingers 7.12502
rthumb 12.0634 0.56509
lclavicle -3.02153e-014 -3.73715e-014
lhumerus -71.6381 -5.09644 93.4114
lradius 109.613
lwrist 29.4834
lhand -18.7777 8.60168
lfingers 7.12502
lthumb 7.51977 38.448
rfemur 18.9374 11.2899 34.1627
rtibia 37.7339
rfoot 3.36606 -4.41539
rtoes 12.1005
lfemur -38.2911 -12.0575 5.3608
ltibia 25.7754
lfoot 4.8706 2.68326
ltoes -17.1427
21
root 11.2304 16.6589 -17.6513 6.85384 -13.5821 -1.14609
lowerback 5.49313 5.04977 6.56951
upperback -1.42096 7.24438 1.07851
thorax -3.88015 3.44638 -3.12182
lowerneck -13.9717 -6.50234 -11.5576
upperneck 14.7325 -8.15014 9.71558
head 7.72112 -3.70315 4.18617
rclavicle -4.1049e-014 -1.59028e-015
rhumerus -45.3552 18.5155 -95.1478
rradius 123.718
rwrist -2.95881
rhand -14.0198 31.276
rfingers 7.12502
rthumb 12.1101 1.64647
lclavicle -4.1049e-014 -1.59028e-015
lhumerus -71.9029 -4.3209 93.6508
lradius 110.339
lwrist 31.1265
lhand -18.4023 9.39478
lfingers 7.12502
lthumb 7.88209 39.2278
rfemur 18.0221 12.3939 34.0629
rtibia 42.2379
rfoot 2.37761 -4.92897
rtoes 11.2295
lfemur -37.0436 -12.8436 6.91119
ltibia 25.2353
lfoot 6.55941 1.84381
ltoes -24.2366
22
root 11.1775 16.5933 -17.077 6.62547 -15.1271 -1.03209
lowerback 5.77258 5.03028 6.17832
upperback -1.40761 7.21854 1.23425
thorax -4.09254 3.43662 -2.77854
lowerneck -13.6111 -6.32138 -12.0336
upperneck 14.6064 -7.90789 10.1292
head 7.62659 -3.59027 4.44154
rclavicle -1.82882e-014 4.77083e-015
rhumerus -45.998 19.3347 -95.9856
rradius 123.063
rwrist -3.28037
rhand -14.2569 30.6361
rfingers 7.12502
rthumb 11.8814 0.993231
lclavicle -1.82882e-014 4.77083e-015
lhumerus -72.2452 -3.42324 94.1511
lradius 110.966
lwrist 33.4161
lhand -17.8296 9.67362
lfingers 7.12502
lthumb 8.43475 39.4852
rfemur 16.8206 13.0116 33.0972
rtibia 47.2548
rfoot 1.05118 -5.83742
rtoes 8.17731
lfemur -35.6644 -12.719 7.01933
ltibia 25.4953
lfoot 6.4538 0.808899
ltoes -22.9832
23
root 11.1135 16.5324 -16.505 6.01897 -16.9454 -0.291871
lowerback 6.0711 5.11306 5.24722
upperback -1.11599 7.26183 1.11097
thorax -4.0466 3.48673 -2.41867
lowerneck -13.2077 -6.19289 -12.1014
upperneck 13.9747 -7.76138 10.3742
head 7.34584 -3.51658 4.55622
rclavicle -7.72278e-014 -1.51076e-014
rhumerus -46.1901 19.4409 -96.7483
rradius 122.106
rwrist -3.11036
rhand -14.2977 30.0451
rfingers 7.12502
rthumb 11.842 0.399906
lclavicle -7.72278e-014 -1.51076e-014
lhumerus -71.9174 -3.19071 94.8112
lradius 111.481
lwrist 36.2197
lhand -17.2294 9.0818
lfingers 7.12502
lthumb 9.01399 38.8692
rfemur 15.3481 13.4442 31.243
rtibia 52.6031
rfoot -0.168459 -6.92062
rtoes 3.12943
lfemur -33.9045 -11.6674 5.68843
ltibia 26.8802
lfoot 2.83735 -1.19206
ltoes -28.2825
